<svg id="visual" viewBox="0 0 900 600" width="900" height="600" xmlns="http://www.w3.org/2000/svg" xmlns:xlink="http://www.w3.org/1999/xlink" version="1.1"><rect x="0" y="0" width="900" height="600" fill="#20262E"></rect><path d="M552 600L572 585.7C592 571.3 632 542.7 644 514.2C656 485.7 640 457.3 616.8 428.8C593.7 400.3 563.3 371.7 571.2 343C579 314.3 625 285.7 642.7 257C660.3 228.3 649.7 199.7 626.5 171.2C603.3 142.7 567.7 114.3 564.5 85.8C561.3 57.3 590.7 28.7 605.3 14.3L620 0L900 0L900 14.3C900 28.7 900 57.3 900 85.8C900 114.3 900 142.7 900 171.2C900 199.7 900 228.3 900 257C900 285.7 900 314.3 900 343C900 371.7 900 400.3 900 428.8C900 457.3 900 485.7 900 514.2C900 542.7 900 571.3 900 585.7L900 600Z" fill="#913175"></path><path d="M707 600L688.2 585.7C669.3 571.3 631.7 542.7 633.8 514.2C636 485.7 678 457.3 694.8 428.8C711.7 400.3 703.3 371.7 700.7 343C698 314.3 701 285.7 693.5 257C686 228.3 668 199.7 668.8 171.2C669.7 142.7 689.3 114.3 692.2 85.8C695 57.3 681 28.7 674 14.3L667 0L900 0L900 14.3C900 28.7 900 57.3 900 85.8C900 114.3 900 142.7 900 171.2C900 199.7 900 228.3 900 257C900 285.7 900 314.3 900 343C900 371.7 900 400.3 900 428.8C900 457.3 900 485.7 900 514.2C900 542.7 900 571.3 900 585.7L900 600Z" fill="#a03a7a"></path><path d="M760 600L746.7 585.7C733.3 571.3 706.7 542.7 689.7 514.2C672.7 485.7 665.3 457.3 672.7 428.8C680 400.3 702 371.7 711.5 343C721 314.3 718 285.7 720 257C722 228.3 729 199.7 724.2 171.2C719.3 142.7 702.7 114.3 702.8 85.8C703 57.3 720 28.7 728.5 14.3L737 0L900 0L900 14.3C900 28.7 900 57.3 900 85.8C900 114.3 900 142.7 900 171.2C900 199.7 900 228.3 900 257C900 285.7 900 314.3 900 343C900 371.7 900 400.3 900 428.8C900 457.3 900 485.7 900 514.2C900 542.7 900 571.3 900 585.7L900 600Z" fill="#af447f"></path><path d="M747 600L744.8 585.7C742.7 571.3 738.3 542.7 749.3 514.2C760.3 485.7 786.7 457.3 792 428.8C797.3 400.3 781.7 371.7 778.2 343C774.7 314.3 783.3 285.7 781 257C778.7 228.3 765.3 199.7 763.5 171.2C761.7 142.7 771.3 114.3 775.3 85.8C779.3 57.3 777.7 28.7 776.8 14.3L776 0L900 0L900 14.3C900 28.7 900 57.3 900 85.8C900 114.3 900 142.7 900 171.2C900 199.7 900 228.3 900 257C900 285.7 900 314.3 900 343C900 371.7 900 400.3 900 428.8C900 457.3 900 485.7 900 514.2C900 542.7 900 571.3 900 585.7L900 600Z" fill="#be4e84"></path><path d="M816 600L816.5 585.7C817 571.3 818 542.7 816.8 514.2C815.7 485.7 812.3 457.3 811.7 428.8C811 400.3 813 371.7 821.8 343C830.7 314.3 846.3 285.7 853.5 257C860.7 228.3 859.3 199.7 856.7 171.2C854 142.7 850 114.3 839 85.8C828 57.3 810 28.7 801 14.3L792 0L900 0L900 14.3C900 28.7 900 57.3 900 85.8C900 114.3 900 142.7 900 171.2C900 199.7 900 228.3 900 257C900 285.7 900 314.3 900 343C900 371.7 900 400.3 900 428.8C900 457.3 900 485.7 900 514.2C900 542.7 900 571.3 900 585.7L900 600Z" fill="#cd5888"></path></svg>