<svg id="visual" viewBox="0 0 450 900" width="450" height="100%" xmlns="http://www.w3.org/2000/svg" xmlns:xlink="http://www.w3.org/1999/xlink" version="1.1"><rect x="0" y="0" width="450" height="9999" fill="#20262E"></rect><path d="M314 9999L306.3 9761C298.7 9523 283.3 9047 276.5 8570.8C269.7 8094.7 271.3 7618.3 279 7142.2C286.7 6666 300.3 6190 305.2 5713.8C310 5237.7 306 4761.3 298 4285.2C290 3809 278 3333 276 2856.8C274 2380.7 282 1904.3 282.2 1428.2C282.3 952 274.7 476 270.8 238L267 0L450 0L450 238C450 476 450 952 450 1428.2C450 1904.3 450 2380.7 450 2856.8C450 3333 450 3809 450 4285.2C450 4761.3 450 5237.7 450 5713.8C450 6190 450 6666 450 7142.2C450 7618.3 450 8094.7 450 8570.8C450 9047 450 9523 450 9761L450 9999Z" fill="#913175"></path><path d="M314 9999L313.2 9761C312.3 9523 310.7 9047 315.2 8570.8C319.7 8094.7 330.3 7618.3 334 7142.2C337.7 6666 334.3 6190 326.7 5713.8C319 5237.7 307 4761.3 302.2 4285.2C297.3 3809 299.7 3333 307.7 2856.8C315.7 2380.7 329.3 1904.3 337.7 1428.2C346 952 349 476 350.5 238L352 0L450 0L450 238C450 476 450 952 450 1428.2C450 1904.3 450 2380.7 450 2856.8C450 3333 450 3809 450 4285.2C450 4761.3 450 5237.7 450 5713.8C450 6190 450 6666 450 7142.2C450 7618.3 450 8094.7 450 8570.8C450 9047 450 9523 450 9761L450 9999Z" fill="#a03a7a"></path><path d="M377 9999L372.8 9761C368.7 9523 360.3 9047 356.7 8570.8C353 8094.7 354 7618.3 356 7142.2C358 6666 361 6190 360.3 5713.8C359.7 5237.7 355.3 4761.3 352 4285.2C348.7 3809 346.3 3333 342.7 2856.8C339 2380.7 334 1904.3 334.5 1428.2C335 952 341 476 344 238L347 0L450 0L450 238C450 476 450 952 450 1428.2C450 1904.3 450 2380.7 450 2856.8C450 3333 450 3809 450 4285.2C450 4761.3 450 5237.7 450 5713.8C450 6190 450 6666 450 7142.2C450 7618.3 450 8094.7 450 8570.8C450 9047 450 9523 450 9761L450 9999Z" fill="#af447f"></path><path d="M387 9999L383.3 9761C379.7 9523 372.3 9047 374.7 8570.8C377 8094.7 389 7618.3 389 7142.2C389 6666 377 6190 372.5 5713.8C368 5237.7 371 4761.3 375 4285.2C379 3809 384 3333 388.5 2856.8C393 2380.7 397 1904.3 392.5 1428.2C388 952 375 476 368.5 238L362 0L450 0L450 238C450 476 450 952 450 1428.2C450 1904.3 450 2380.7 450 2856.8C450 3333 450 3809 450 4285.2C450 4761.3 450 5237.7 450 5713.8C450 6190 450 6666 450 7142.2C450 7618.3 450 8094.7 450 8570.8C450 9047 450 9523 450 9761L450 9999Z" fill="#be4e84"></path><path d="M432 9999L429.8 9761C427.7 9523 423.3 9047 420.5 8570.8C417.7 8094.7 416.3 7618.3 415.7 7142.2C415 6666 415 6190 415.2 5713.8C415.3 5237.7 415.7 4761.3 414.7 4285.2C413.7 3809 411.3 3333 410.3 2856.8C409.3 2380.7 409.7 1904.3 407.7 1428.2C405.7 952 401.3 476 399.2 238L397 0L450 0L450 238C450 476 450 952 450 1428.2C450 1904.3 450 2380.7 450 2856.8C450 3333 450 3809 450 4285.2C450 4761.3 450 5237.7 450 5713.8C450 6190 450 6666 450 7142.2C450 7618.3 450 8094.7 450 8570.8C450 9047 450 9523 450 9761L450 9999Z" fill="#cd5888"></path></svg>