<svg id="visual" viewBox="0 0 450 999" width="450" height="100%" xmlns="http://www.w3.org/2000/svg" xmlns:xlink="http://www.w3.org/1999/xlink" version="1.1"><rect x="0" y="0" width="450" height="900" fill="#20262E"></rect><path d="M277 900L286.8 878.5C296.7 857 316.3 814 322.2 771.2C328 728.3 320 685.7 308.5 642.8C297 600 282 557 286 514.2C290 471.3 313 428.7 321.8 385.8C330.7 343 325.3 300 313.8 257.2C302.3 214.3 284.7 171.7 283 128.8C281.3 86 295.7 43 302.8 21.5L310 0L450 0L450 21.5C450 43 450 86 450 128.8C450 171.7 450 214.3 450 257.2C450 300 450 343 450 385.8C450 428.7 450 471.3 450 514.2C450 557 450 600 450 642.8C450 685.7 450 728.3 450 771.2C450 814 450 857 450 878.5L450 900Z" fill="#913175"></path><path d="M354 900L344.5 878.5C335 857 316 814 317.2 771.2C318.3 728.3 339.7 685.7 348.2 642.8C356.7 600 352.3 557 351 514.2C349.7 471.3 351.3 428.7 347.5 385.8C343.7 343 334.3 300 334.7 257.2C335 214.3 345 171.7 346.5 128.8C348 86 341 43 337.5 21.5L334 0L450 0L450 21.5C450 43 450 86 450 128.8C450 171.7 450 214.3 450 257.2C450 300 450 343 450 385.8C450 428.7 450 471.3 450 514.2C450 557 450 600 450 642.8C450 685.7 450 728.3 450 771.2C450 814 450 857 450 878.5L450 900Z" fill="#a03a7a"></path><path d="M381 900L374.2 878.5C367.3 857 353.7 814 345.2 771.2C336.7 728.3 333.3 685.7 337 642.8C340.7 600 351.3 557 356 514.2C360.7 471.3 359.3 428.7 360.5 385.8C361.7 343 365.3 300 362.8 257.2C360.3 214.3 351.7 171.7 351.7 128.8C351.7 86 360.3 43 364.7 21.5L369 0L450 0L450 21.5C450 43 450 86 450 128.8C450 171.7 450 214.3 450 257.2C450 300 450 343 450 385.8C450 428.7 450 471.3 450 514.2C450 557 450 600 450 642.8C450 685.7 450 728.3 450 771.2C450 814 450 857 450 878.5L450 900Z" fill="#af447f"></path><path d="M374 900L372.8 878.5C371.7 857 369.3 814 374.8 771.2C380.3 728.3 393.7 685.7 396.3 642.8C399 600 391 557 389.2 514.2C387.3 471.3 391.7 428.7 390.7 385.8C389.7 343 383.3 300 382.5 257.2C381.7 214.3 386.3 171.7 388.2 128.8C390 86 389 43 388.5 21.5L388 0L450 0L450 21.5C450 43 450 86 450 128.8C450 171.7 450 214.3 450 257.2C450 300 450 343 450 385.8C450 428.7 450 471.3 450 514.2C450 557 450 600 450 642.8C450 685.7 450 728.3 450 771.2C450 814 450 857 450 878.5L450 900Z" fill="#be4e84"></path><path d="M409 900L409.2 878.5C409.3 857 409.7 814 409 771.2C408.3 728.3 406.7 685.7 406.3 642.8C406 600 407 557 411.3 514.2C415.7 471.3 423.3 428.7 426.8 385.8C430.3 343 429.7 300 428.5 257.2C427.3 214.3 425.7 171.7 420.2 128.8C414.7 86 405.3 43 400.7 21.5L396 0L450 0L450 21.5C450 43 450 86 450 128.8C450 171.7 450 214.3 450 257.2C450 300 450 343 450 385.8C450 428.7 450 471.3 450 514.2C450 557 450 600 450 642.8C450 685.7 450 728.3 450 771.2C450 814 450 857 450 878.5L450 900Z" fill="#cd5888"></path></svg>